<svg xmlns="http://www.w3.org/2000/svg" viewBox="0 0 48 48" fill="#FFC220">
  <path d="M24 2l3.5 9.5h10l-8 6 3 9.5-8.5-6-8.5 6 3-9.5-8-6h10z"/>
  <path d="M24 14l2 5.5h5.8l-4.7 3.4 1.8 5.5L24 25l-4.9 3.4 1.8-5.5-4.7-3.4H22z" fill="#FFC220"/>
  <circle cx="24" cy="8" r="2.5"/>
  <circle cx="15" cy="16" r="2.5"/>
  <circle cx="33" cy="16" r="2.5"/>
  <circle cx="24" cy="24" r="3" fill="#FFC220"/>
  <rect x="23" y="4" width="2" height="8" rx="1"/>
  <rect x="23" y="24" width="2" height="8" rx="1"/>
  <rect x="23" y="4" width="2" height="8" rx="1" transform="rotate(60 24 24)"/>
  <rect x="23" y="4" width="2" height="8" rx="1" transform="rotate(120 24 24)"/>
  <rect x="23" y="4" width="2" height="8" rx="1" transform="rotate(180 24 24)"/>
  <rect x="23" y="4" width="2" height="8" rx="1" transform="rotate(240 24 24)"/>
  <rect x="23" y="4" width="2" height="8" rx="1" transform="rotate(300 24 24)"/>
</svg>
